<svg width="100" height="100" viewBox="0 0 100 100" fill="none" xmlns="http://www.w3.org/2000/svg">
<g clip-path="url(#clip0_2812_150)">
<path fill-rule="evenodd" clip-rule="evenodd" d="M49.5 27C60.8218 27 70 36.402 70 48C70 59.598 60.8218 69 49.5 69C38.1782 69 29 59.598 29 48C29 36.402 38.1782 27 49.5 27Z" fill="url(#paint0_linear_2812_150)"/>
<path d="M42.3003 43.0786C46.5159 38.9738 53.3591 38.9738 57.5747 43.0786L58.0823 43.5764C58.2951 43.7804 58.2951 44.115 58.0823 44.319L56.3469 46.0082C56.2405 46.1143 56.0686 46.1143 55.9622 46.0082L55.2664 45.3309C52.3195 42.4666 47.5555 42.4666 44.6086 45.3309L43.8637 46.0572C43.7573 46.1633 43.5854 46.1633 43.479 46.0572L41.7436 44.368C41.5308 44.164 41.5308 43.8294 41.7436 43.6254L42.3003 43.0786ZM61.1683 46.5714L62.7154 48.0729C62.9282 48.2769 62.9282 48.6115 62.7154 48.8155L55.7494 55.597C55.5365 55.801 55.1927 55.801 54.9881 55.597L50.0439 50.7822C49.9948 50.7332 49.9048 50.7332 49.8557 50.7822L44.9115 55.597C44.6987 55.801 44.3549 55.801 44.1502 55.597L37.1596 48.8155C36.9468 48.6115 36.9468 48.2769 37.1596 48.0729L38.7067 46.5714C38.9195 46.3673 39.2633 46.3673 39.468 46.5714L44.4122 51.3861C44.4613 51.4351 44.5513 51.4351 44.6004 51.3861L49.5446 46.5714C49.7574 46.3673 50.1012 46.3673 50.3059 46.5714L55.25 51.3861C55.2991 51.4351 55.3892 51.4351 55.4383 51.3861L60.3825 46.5714C60.6117 46.3673 60.9555 46.3673 61.1683 46.5714Z" fill="white"/>
</g>
<path d="M25 2H75C87.7025 2 98 12.2975 98 25V75C98 87.7025 87.7025 98 75 98H25C12.2975 98 2 87.7025 2 75V25C2 12.2975 12.2975 2 25 2Z" stroke="url(#paint1_linear_2812_150)" stroke-width="4"/>
<defs>
<linearGradient id="paint0_linear_2812_150" x1="50" y1="69" x2="52" y2="27" gradientUnits="userSpaceOnUse">
<stop stop-color="#E18DFF"/>
<stop offset="0.964" stop-color="#3D73FF"/>
</linearGradient>
<linearGradient id="paint1_linear_2812_150" x1="75" y1="16.5" x2="5" y2="100" gradientUnits="userSpaceOnUse">
<stop stop-color="#E18DFF"/>
<stop offset="0.964" stop-color="#3D73FF"/>
</linearGradient>
<clipPath id="clip0_2812_150">
<path d="M29 27H70V72H54C40.1929 72 29 60.8071 29 47V27Z" fill="white"/>
</clipPath>
</defs>
</svg>
